<svg xmlns="http://www.w3.org/2000/svg" xmlns:xlink="http://www.w3.org/1999/xlink" width="50" zoomAndPan="magnify" viewBox="0 0 37.5 37.499999" height="50" preserveAspectRatio="xMidYMid meet" version="1.0"><path fill="#e73b37" d="M 23.125 11.816406 L 23.125 12.402344 C 24.410156 12.601562 25.585938 13.203125 26.523438 14.136719 C 27.691406 15.304688 28.332031 16.855469 28.332031 18.503906 C 28.332031 20.152344 27.691406 21.703125 26.523438 22.867188 C 25.585938 23.804688 24.410156 24.402344 23.125 24.605469 L 23.125 25.1875 C 26.394531 24.71875 28.90625 21.902344 28.90625 18.503906 C 28.90625 15.101562 26.394531 12.289062 23.125 11.816406 Z M 23.125 11.816406 " fill-opacity="1" fill-rule="nonzero"/><path fill="#e73b37" d="M 26.15625 7.777344 L 26.15625 8.371094 C 26.699219 8.5 27.230469 8.675781 27.746094 8.894531 C 28.992188 9.417969 30.105469 10.167969 31.0625 11.128906 C 32.019531 12.085938 32.769531 13.199219 33.296875 14.441406 C 33.839844 15.726562 34.117188 17.09375 34.117188 18.503906 C 34.117188 19.910156 33.839844 21.273438 33.296875 22.5625 C 32.769531 23.804688 32.019531 24.917969 31.0625 25.875 C 30.105469 26.832031 28.992188 27.585938 27.746094 28.109375 C 27.230469 28.328125 26.699219 28.503906 26.15625 28.632812 L 26.15625 29.226562 C 31.046875 28.105469 34.695312 23.730469 34.695312 18.503906 C 34.695312 13.277344 31.046875 8.898438 26.15625 7.777344 Z M 10.027344 13.980469 L 10.605469 13.980469 L 10.605469 23.011719 L 10.027344 23.011719 Z M 10.027344 13.980469 " fill-opacity="1" fill-rule="nonzero"/><path fill="#39393a" d="M 10.027344 13.980469 L 10.027344 14.3125 L 10.605469 14.3125 L 10.605469 13.980469 Z M 10.027344 22.695312 L 10.027344 23.011719 L 10.605469 23.011719 L 10.605469 22.695312 Z M 10.027344 22.695312 " fill-opacity="1" fill-rule="nonzero"/><path fill="#39393a" d="M 22.277344 16.566406 C 21.878906 16.164062 21.355469 15.890625 20.777344 15.796875 L 20.777344 4.046875 L 10.042969 12.722656 L 2.3125 12.722656 L 2.3125 24.285156 L 10.046875 24.285156 L 20.777344 32.957031 L 20.777344 21.210938 C 22.082031 21 23.082031 19.863281 23.082031 18.503906 C 23.082031 17.746094 22.773438 17.0625 22.277344 16.566406 Z M 19.183594 29.625 L 11.042969 23.046875 L 10.605469 22.691406 L 10.605469 23.011719 L 10.027344 23.011719 L 10.027344 22.695312 L 3.902344 22.695312 L 3.902344 14.3125 L 10.027344 14.3125 L 10.027344 13.980469 L 10.605469 13.980469 L 10.605469 14.3125 L 11.042969 13.957031 L 19.183594 7.375 Z M 21.867188 20.027344 C 21.5625 20.332031 21.183594 20.539062 20.777344 20.621094 L 20.777344 16.382812 C 21.183594 16.464844 21.5625 16.667969 21.867188 16.972656 C 22.28125 17.382812 22.503906 17.929688 22.503906 18.503906 C 22.503906 19.078125 22.277344 19.621094 21.867188 20.027344 Z M 21.867188 20.027344 " fill-opacity="1" fill-rule="nonzero"/></svg>