<svg xmlns="http://www.w3.org/2000/svg" xmlns:xlink="http://www.w3.org/1999/xlink" width="50" zoomAndPan="magnify" viewBox="0 0 37.5 37.499999" height="50" preserveAspectRatio="xMidYMid meet" version="1.0"><path fill="#e73b37" d="M 18.140625 10.886719 C 18.140625 10.984375 18.175781 11.070312 18.246094 11.140625 C 18.316406 11.210938 18.402344 11.246094 18.503906 11.246094 C 18.601562 11.246094 18.6875 11.210938 18.757812 11.140625 C 18.828125 11.070312 18.863281 10.984375 18.863281 10.886719 C 18.863281 10.785156 18.828125 10.699219 18.757812 10.628906 C 18.6875 10.558594 18.601562 10.523438 18.503906 10.523438 C 18.402344 10.523438 18.316406 10.558594 18.246094 10.628906 C 18.175781 10.699219 18.140625 10.785156 18.140625 10.886719 Z M 18.140625 10.886719 " fill-opacity="1" fill-rule="nonzero"/><path fill="#39393a" d="M 14.464844 26.90625 C 14.542969 26.878906 14.613281 26.855469 14.691406 26.832031 C 14.617188 26.855469 14.542969 26.878906 14.464844 26.90625 Z M 14.464844 26.90625 C 14.542969 26.878906 14.613281 26.855469 14.691406 26.832031 C 14.617188 26.855469 14.542969 26.878906 14.464844 26.90625 Z M 14.464844 26.90625 " fill-opacity="1" fill-rule="nonzero"/><path fill="#e73b37" d="M 18.496094 9.273438 C 19.378906 9.273438 20.09375 9.988281 20.09375 10.871094 C 20.09375 11.753906 19.378906 12.46875 18.496094 12.46875 C 17.613281 12.46875 16.898438 11.753906 16.898438 10.871094 C 16.898438 9.988281 17.617188 9.273438 18.496094 9.273438 M 18.496094 8.550781 C 17.214844 8.550781 16.175781 9.585938 16.175781 10.871094 C 16.175781 12.152344 17.214844 13.191406 18.496094 13.191406 C 19.777344 13.191406 20.816406 12.152344 20.816406 10.871094 C 20.816406 9.585938 19.777344 8.550781 18.496094 8.550781 Z M 18.496094 8.550781 " fill-opacity="1" fill-rule="nonzero"/><path fill="#39393a" d="M 26.40625 19.136719 C 26.421875 18.820312 26.429688 18.507812 26.429688 18.1875 C 26.429688 11.699219 23.316406 5.933594 18.503906 2.304688 C 13.691406 5.933594 10.582031 11.699219 10.582031 18.1875 C 10.582031 18.507812 10.589844 18.820312 10.601562 19.132812 C 8.578125 21.15625 7.328125 23.949219 7.328125 27.035156 C 7.328125 29.265625 7.980469 31.339844 9.101562 33.082031 C 10.199219 31.28125 11.804688 29.824219 13.71875 28.914062 C 15.128906 28.242188 16.707031 27.867188 18.375 27.867188 C 20.117188 27.867188 21.765625 28.277344 23.226562 29.011719 C 25.125 29.964844 26.707031 31.460938 27.765625 33.292969 C 28.972656 31.507812 29.675781 29.355469 29.675781 27.035156 C 29.675781 23.949219 28.425781 21.160156 26.40625 19.136719 Z M 12.6875 13.855469 C 13.019531 12.484375 13.515625 11.15625 14.15625 9.898438 C 14.789062 8.65625 15.554688 7.5 16.453125 6.433594 C 17.082031 5.6875 17.769531 4.992188 18.507812 4.355469 C 19.246094 4.992188 19.929688 5.6875 20.558594 6.433594 C 21.457031 7.5 22.230469 8.667969 22.859375 9.898438 C 23.496094 11.15625 23.992188 12.484375 24.324219 13.855469 C 24.640625 15.148438 24.8125 16.484375 24.839844 17.828125 C 23.035156 16.589844 20.851562 15.863281 18.503906 15.863281 C 16.152344 15.863281 13.976562 16.589844 12.175781 17.828125 C 12.199219 16.484375 12.375 15.148438 12.6875 13.855469 Z M 9.414062 30.089844 C 9.085938 29.113281 8.917969 28.082031 8.917969 27.039062 C 8.917969 25.746094 9.171875 24.488281 9.671875 23.308594 C 9.972656 22.59375 10.359375 21.921875 10.824219 21.304688 C 11.175781 23.527344 11.890625 25.628906 12.914062 27.542969 C 11.597656 28.183594 10.417969 29.046875 9.414062 30.089844 Z M 22.578125 27.007812 C 22.550781 26.996094 22.523438 26.988281 22.496094 26.976562 C 22.480469 26.972656 22.464844 26.96875 22.449219 26.960938 C 22.429688 26.953125 22.402344 26.941406 22.382812 26.933594 C 22.351562 26.921875 22.328125 26.917969 22.296875 26.90625 C 22.269531 26.894531 22.242188 26.886719 22.214844 26.878906 L 22.183594 26.871094 C 22.144531 26.859375 22.105469 26.84375 22.070312 26.832031 C 22.027344 26.820312 21.984375 26.808594 21.945312 26.792969 L 21.835938 26.761719 C 21.828125 26.757812 21.820312 26.757812 21.808594 26.753906 C 21.769531 26.742188 21.726562 26.730469 21.6875 26.71875 C 21.644531 26.707031 21.601562 26.695312 21.5625 26.683594 L 21.429688 26.652344 L 21.300781 26.621094 C 21.265625 26.609375 21.222656 26.601562 21.1875 26.59375 C 21.144531 26.585938 21.101562 26.578125 21.058594 26.566406 C 21.011719 26.554688 20.96875 26.542969 20.921875 26.535156 L 20.910156 26.535156 C 20.878906 26.53125 20.839844 26.523438 20.808594 26.515625 C 20.792969 26.511719 20.785156 26.511719 20.769531 26.507812 C 20.730469 26.5 20.691406 26.492188 20.644531 26.488281 C 20.601562 26.480469 20.558594 26.472656 20.515625 26.460938 L 20.320312 26.429688 C 20.289062 26.425781 20.253906 26.417969 20.21875 26.414062 C 20.191406 26.410156 20.160156 26.402344 20.128906 26.398438 C 20.035156 26.386719 19.945312 26.375 19.851562 26.363281 C 19.808594 26.359375 19.769531 26.351562 19.726562 26.347656 L 19.710938 26.347656 C 19.679688 26.34375 19.644531 26.34375 19.609375 26.339844 C 19.570312 26.335938 19.535156 26.332031 19.492188 26.328125 C 19.433594 26.320312 19.371094 26.316406 19.308594 26.3125 C 19.28125 26.308594 19.253906 26.308594 19.226562 26.304688 C 19.195312 26.300781 19.15625 26.300781 19.125 26.296875 C 19.109375 26.296875 19.097656 26.296875 19.082031 26.292969 C 19.042969 26.292969 19.003906 26.292969 18.964844 26.289062 C 18.949219 26.289062 18.929688 26.285156 18.910156 26.285156 C 18.863281 26.28125 18.816406 26.28125 18.769531 26.28125 C 18.742188 26.28125 18.714844 26.277344 18.6875 26.277344 C 18.644531 26.277344 18.601562 26.277344 18.5625 26.273438 L 18.058594 26.273438 C 17.976562 26.273438 17.890625 26.277344 17.808594 26.28125 C 17.777344 26.28125 17.742188 26.285156 17.707031 26.285156 C 17.679688 26.285156 17.652344 26.289062 17.625 26.289062 C 17.574219 26.292969 17.523438 26.292969 17.476562 26.296875 C 17.425781 26.300781 17.378906 26.304688 17.328125 26.308594 C 17.277344 26.3125 17.230469 26.316406 17.179688 26.324219 C 17.160156 26.324219 17.136719 26.328125 17.117188 26.332031 L 16.832031 26.363281 C 16.792969 26.367188 16.757812 26.375 16.71875 26.378906 C 16.683594 26.382812 16.640625 26.390625 16.605469 26.390625 C 16.492188 26.410156 16.375 26.425781 16.261719 26.445312 C 16.238281 26.449219 16.210938 26.453125 16.1875 26.460938 C 16.152344 26.464844 16.125 26.472656 16.09375 26.480469 C 16.054688 26.488281 16.007812 26.492188 15.96875 26.5 C 15.9375 26.507812 15.910156 26.511719 15.875 26.519531 C 15.863281 26.523438 15.847656 26.523438 15.835938 26.527344 C 15.8125 26.53125 15.785156 26.535156 15.761719 26.539062 C 15.71875 26.550781 15.671875 26.558594 15.628906 26.570312 C 15.585938 26.582031 15.542969 26.585938 15.5 26.597656 C 15.492188 26.597656 15.484375 26.601562 15.476562 26.601562 C 15.460938 26.605469 15.441406 26.609375 15.425781 26.617188 C 15.382812 26.628906 15.339844 26.636719 15.296875 26.648438 C 15.25 26.660156 15.207031 26.671875 15.160156 26.683594 C 15.144531 26.6875 15.128906 26.691406 15.109375 26.699219 C 15.0625 26.714844 15.011719 26.726562 14.964844 26.738281 C 14.910156 26.753906 14.855469 26.773438 14.800781 26.785156 C 14.761719 26.796875 14.722656 26.808594 14.6875 26.824219 C 14.609375 26.84375 14.539062 26.871094 14.464844 26.894531 C 14.4375 26.902344 14.414062 26.914062 14.386719 26.921875 C 13.84375 25.925781 13.398438 24.882812 13.050781 23.804688 C 12.628906 22.5 12.355469 21.144531 12.238281 19.773438 C 12.214844 19.53125 12.199219 19.292969 12.191406 19.050781 C 12.1875 19.003906 12.1875 18.960938 12.1875 18.917969 C 12.183594 18.875 12.183594 18.832031 12.183594 18.789062 C 12.183594 18.746094 12.179688 18.703125 12.179688 18.660156 C 12.179688 18.617188 12.175781 18.570312 12.175781 18.523438 C 12.855469 18.019531 13.59375 17.59375 14.378906 17.261719 C 15.683594 16.707031 17.070312 16.429688 18.503906 16.429688 C 19.933594 16.429688 21.320312 16.710938 22.625 17.261719 C 23.414062 17.59375 24.152344 18.015625 24.832031 18.523438 L 24.832031 18.527344 C 24.832031 18.566406 24.832031 18.597656 24.828125 18.632812 C 24.828125 18.683594 24.824219 18.734375 24.824219 18.789062 C 24.824219 18.8125 24.824219 18.835938 24.820312 18.859375 C 24.816406 18.925781 24.816406 18.988281 24.8125 19.050781 C 24.800781 19.292969 24.785156 19.535156 24.765625 19.777344 C 24.648438 21.167969 24.367188 22.539062 23.933594 23.859375 C 23.585938 24.953125 23.128906 26.003906 22.578125 27.007812 Z M 27.519531 30.292969 C 26.519531 29.203125 25.359375 28.320312 24.039062 27.648438 C 25.089844 25.707031 25.828125 23.570312 26.1875 21.304688 C 26.648438 21.921875 27.03125 22.589844 27.335938 23.308594 C 27.835938 24.492188 28.085938 25.746094 28.085938 27.039062 C 28.085938 28.160156 27.894531 29.253906 27.519531 30.292969 Z M 27.519531 30.292969 " fill-opacity="1" fill-rule="nonzero"/><path fill="#e73b37" d="M 18.503906 29.609375 C 18.816406 29.609375 19.394531 30.4375 19.394531 31.792969 C 19.394531 33.148438 18.816406 33.972656 18.503906 33.972656 C 18.1875 33.972656 17.609375 33.148438 17.609375 31.792969 C 17.609375 30.4375 18.1875 29.609375 18.503906 29.609375 M 18.503906 28.886719 C 17.609375 28.886719 16.886719 30.1875 16.886719 31.792969 C 16.886719 33.394531 17.609375 34.699219 18.503906 34.699219 C 19.394531 34.699219 20.117188 33.394531 20.117188 31.792969 C 20.117188 30.1875 19.394531 28.886719 18.503906 28.886719 Z M 18.503906 28.886719 " fill-opacity="1" fill-rule="nonzero"/></svg>