<svg xmlns="http://www.w3.org/2000/svg" xmlns:xlink="http://www.w3.org/1999/xlink" width="50" zoomAndPan="magnify" viewBox="0 0 37.5 37.499999" height="50" preserveAspectRatio="xMidYMid meet" version="1.0"><path fill="#e73b37" d="M 18.117188 24.460938 C 18.117188 24.5625 18.152344 24.648438 18.222656 24.71875 C 18.292969 24.789062 18.378906 24.824219 18.476562 24.824219 C 18.578125 24.824219 18.664062 24.789062 18.734375 24.71875 C 18.804688 24.648438 18.839844 24.5625 18.839844 24.460938 C 18.839844 24.363281 18.804688 24.277344 18.734375 24.207031 C 18.664062 24.136719 18.578125 24.101562 18.476562 24.101562 C 18.378906 24.101562 18.292969 24.136719 18.222656 24.207031 C 18.152344 24.277344 18.117188 24.363281 18.117188 24.460938 Z M 18.117188 24.460938 " fill-opacity="1" fill-rule="nonzero"/><path fill="#39393a" d="M 34.695312 27.320312 L 34.695312 5.003906 L 2.3125 5.003906 L 2.3125 27.320312 L 13.882812 27.320312 L 13.882812 30.410156 L 9.257812 30.410156 L 9.257812 32 L 27.757812 32 L 27.757812 30.410156 L 23.132812 30.410156 L 23.132812 27.320312 Z M 3.902344 6.59375 L 33.105469 6.59375 L 33.105469 22.03125 L 3.902344 22.03125 Z M 21.542969 30.410156 L 15.472656 30.410156 L 15.472656 27.320312 L 21.542969 27.320312 Z M 3.902344 25.730469 L 3.902344 22.75 L 33.105469 22.75 L 33.105469 25.730469 Z M 3.902344 25.730469 " fill-opacity="1" fill-rule="nonzero"/><path fill="#e73b37" d="M 6.054688 11.84375 L 9.332031 8.5625 L 9.84375 9.074219 L 6.566406 12.355469 Z M 6.25 15.304688 L 12.796875 8.757812 L 13.308594 9.269531 L 6.761719 15.816406 Z M 6.25 15.304688 " fill-opacity="1" fill-rule="nonzero"/></svg>