<svg xmlns="http://www.w3.org/2000/svg" xmlns:xlink="http://www.w3.org/1999/xlink" width="50" zoomAndPan="magnify" viewBox="0 0 37.5 37.499999" height="50" preserveAspectRatio="xMidYMid meet" version="1.0"><path fill="#39393a" d="M 33.539062 31.839844 L 33.539062 33.429688 L 3.464844 33.429688 L 3.464844 3.578125 L 5.054688 3.578125 L 5.054688 31.839844 Z M 33.539062 31.839844 " fill-opacity="1" fill-rule="nonzero"/><path fill="#39393a" d="M 12.722656 15.746094 L 12.722656 30.324219 L 7.371094 30.324219 L 7.371094 15.746094 L 12.722656 15.746094 M 13.515625 14.949219 L 6.578125 14.949219 L 6.578125 31.121094 L 13.515625 31.121094 Z M 21.972656 11.128906 L 21.972656 30.324219 L 16.625 30.324219 L 16.625 11.128906 L 21.972656 11.128906 M 22.769531 10.332031 L 15.828125 10.332031 L 15.828125 31.121094 L 22.769531 31.121094 Z M 22.769531 10.332031 " fill-opacity="1" fill-rule="nonzero"/><path fill="#e73b37" d="M 31.300781 6.40625 L 31.300781 30.398438 L 25.804688 30.398438 L 25.804688 6.40625 L 31.300781 6.40625 M 32.023438 5.683594 L 25.082031 5.683594 L 25.082031 31.125 L 32.019531 31.125 L 32.019531 5.683594 Z M 32.023438 5.683594 " fill-opacity="1" fill-rule="nonzero"/></svg>