<svg xmlns="http://www.w3.org/2000/svg" xmlns:xlink="http://www.w3.org/1999/xlink" width="50" zoomAndPan="magnify" viewBox="0 0 37.5 37.499999" height="50" preserveAspectRatio="xMidYMid meet" version="1.0"><path fill="#39393a" d="M 18.5 7.214844 C 12.855469 7.214844 8.277344 11.789062 8.277344 17.4375 C 8.277344 21.1875 10.296875 24.46875 13.308594 26.246094 L 13.308594 29.492188 C 13.308594 29.539062 13.308594 29.582031 13.3125 29.628906 C 13.316406 29.746094 13.324219 29.863281 13.335938 29.976562 C 13.582031 32.609375 15.816406 34.6875 18.507812 34.6875 C 19.933594 34.6875 21.230469 34.101562 22.175781 33.160156 C 23.007812 32.332031 23.558594 31.21875 23.679688 29.984375 C 23.6875 29.867188 23.695312 29.753906 23.699219 29.636719 C 23.699219 29.589844 23.703125 29.539062 23.703125 29.492188 L 23.703125 26.242188 L 23.726562 26.230469 C 26.722656 24.449219 28.730469 21.175781 28.730469 17.4375 C 28.722656 11.789062 24.148438 7.214844 18.5 7.214844 Z M 14.164062 27.753906 L 14.210938 27.753906 Z M 22.105469 29.492188 C 22.105469 29.703125 22.089844 29.910156 22.050781 30.109375 C 22.011719 30.34375 21.949219 30.570312 21.859375 30.789062 C 21.679688 31.25 21.40625 31.675781 21.042969 32.039062 C 20.359375 32.71875 19.457031 33.097656 18.5 33.097656 C 17.542969 33.097656 16.636719 32.71875 15.957031 32.039062 C 15.59375 31.675781 15.316406 31.25 15.136719 30.785156 C 15.046875 30.566406 14.988281 30.339844 14.945312 30.105469 C 14.910156 29.90625 14.898438 29.699219 14.898438 29.492188 L 14.898438 29.175781 L 22.101562 29.175781 L 22.101562 29.492188 Z M 22.105469 28.597656 L 14.898438 28.597656 L 14.898438 26.875 L 22.105469 26.875 Z M 24.605469 23.542969 C 24.320312 23.824219 24.027344 24.078125 23.71875 24.316406 C 23.222656 24.691406 22.691406 25.011719 22.128906 25.273438 L 22.105469 25.28125 L 22.105469 25.285156 L 14.898438 25.285156 C 14.34375 25.03125 13.820312 24.71875 13.332031 24.355469 C 13.003906 24.109375 12.691406 23.835938 12.394531 23.542969 C 11.601562 22.746094 10.980469 21.824219 10.546875 20.796875 C 10.09375 19.734375 9.867188 18.605469 9.867188 17.4375 C 9.867188 16.269531 10.09375 15.140625 10.546875 14.078125 C 10.980469 13.050781 11.605469 12.125 12.394531 11.328125 C 13.191406 10.535156 14.113281 9.914062 15.140625 9.480469 C 16.203125 9.03125 17.335938 8.804688 18.503906 8.804688 C 19.671875 8.804688 20.800781 9.03125 21.863281 9.480469 C 22.890625 9.914062 23.816406 10.539062 24.609375 11.328125 C 25.40625 12.125 26.027344 13.046875 26.460938 14.078125 C 26.910156 15.140625 27.140625 16.269531 27.140625 17.4375 C 27.140625 18.605469 26.914062 19.730469 26.460938 20.796875 C 26.019531 21.824219 25.398438 22.746094 24.605469 23.542969 Z M 24.605469 23.542969 " fill-opacity="1" fill-rule="nonzero"/><path fill="#e73b37" d="M 18.5 15.621094 C 17.066406 15.621094 15.898438 16.789062 15.898438 18.226562 C 15.898438 19.574219 16.929688 20.6875 18.246094 20.816406 L 18.246094 25.285156 L 18.753906 25.285156 L 18.753906 20.816406 C 20.066406 20.691406 21.101562 19.578125 21.101562 18.226562 C 21.101562 16.789062 19.933594 15.621094 18.5 15.621094 Z M 18.5 20.25 C 17.382812 20.25 16.476562 19.339844 16.476562 18.226562 C 16.476562 17.109375 17.382812 16.203125 18.5 16.203125 C 19.617188 16.203125 20.523438 17.109375 20.523438 18.226562 C 20.523438 19.339844 19.617188 20.25 18.5 20.25 Z M 18.5 20.25 " fill-opacity="1" fill-rule="nonzero"/><path fill="#e73b37" d="M 17.078125 3.742188 C 17.078125 3.933594 17.117188 4.113281 17.1875 4.289062 C 17.261719 4.464844 17.363281 4.617188 17.496094 4.75 C 17.628906 4.882812 17.785156 4.988281 17.957031 5.058594 C 18.132812 5.132812 18.316406 5.167969 18.503906 5.167969 C 18.691406 5.167969 18.875 5.132812 19.046875 5.058594 C 19.222656 4.988281 19.375 4.882812 19.511719 4.75 C 19.644531 4.617188 19.746094 4.464844 19.820312 4.289062 C 19.890625 4.113281 19.925781 3.933594 19.925781 3.742188 C 19.925781 3.554688 19.890625 3.375 19.820312 3.199219 C 19.746094 3.023438 19.644531 2.871094 19.511719 2.738281 C 19.375 2.605469 19.222656 2.5 19.046875 2.429688 C 18.875 2.355469 18.691406 2.320312 18.503906 2.320312 C 18.316406 2.320312 18.132812 2.355469 17.957031 2.429688 C 17.785156 2.5 17.628906 2.605469 17.496094 2.738281 C 17.363281 2.871094 17.261719 3.023438 17.1875 3.199219 C 17.117188 3.375 17.078125 3.554688 17.078125 3.742188 Z M 17.078125 3.742188 " fill-opacity="1" fill-rule="nonzero"/><path fill="#e73b37" d="M 7.402344 7.75 C 7.402344 7.941406 7.4375 8.121094 7.507812 8.296875 C 7.582031 8.472656 7.683594 8.625 7.820312 8.757812 C 7.953125 8.890625 8.105469 8.996094 8.28125 9.066406 C 8.453125 9.140625 8.636719 9.175781 8.824219 9.175781 C 9.015625 9.175781 9.195312 9.140625 9.371094 9.066406 C 9.542969 8.996094 9.699219 8.890625 9.832031 8.757812 C 9.964844 8.625 10.070312 8.472656 10.140625 8.296875 C 10.214844 8.121094 10.25 7.941406 10.25 7.75 C 10.25 7.5625 10.214844 7.382812 10.140625 7.207031 C 10.070312 7.03125 9.964844 6.878906 9.832031 6.746094 C 9.699219 6.613281 9.542969 6.507812 9.371094 6.4375 C 9.195312 6.363281 9.015625 6.328125 8.824219 6.328125 C 8.636719 6.328125 8.453125 6.363281 8.28125 6.4375 C 8.105469 6.507812 7.953125 6.613281 7.820312 6.746094 C 7.683594 6.878906 7.582031 7.03125 7.507812 7.207031 C 7.4375 7.382812 7.402344 7.5625 7.402344 7.75 Z M 7.402344 7.75 " fill-opacity="1" fill-rule="nonzero"/><path fill="#e73b37" d="M 3.394531 17.425781 C 3.394531 17.613281 3.429688 17.796875 3.5 17.972656 C 3.574219 18.144531 3.675781 18.300781 3.808594 18.433594 C 3.945312 18.566406 4.097656 18.667969 4.273438 18.742188 C 4.445312 18.8125 4.628906 18.851562 4.816406 18.851562 C 5.007812 18.851562 5.1875 18.8125 5.363281 18.742188 C 5.535156 18.667969 5.691406 18.566406 5.824219 18.433594 C 5.957031 18.300781 6.0625 18.144531 6.132812 17.972656 C 6.207031 17.796875 6.242188 17.613281 6.242188 17.425781 C 6.242188 17.238281 6.207031 17.054688 6.132812 16.882812 C 6.0625 16.707031 5.957031 16.554688 5.824219 16.417969 C 5.691406 16.285156 5.535156 16.183594 5.363281 16.109375 C 5.1875 16.039062 5.007812 16.003906 4.816406 16.003906 C 4.628906 16.003906 4.445312 16.039062 4.273438 16.109375 C 4.097656 16.183594 3.945312 16.285156 3.808594 16.417969 C 3.675781 16.554688 3.574219 16.707031 3.5 16.882812 C 3.429688 17.054688 3.394531 17.238281 3.394531 17.425781 Z M 3.394531 17.425781 " fill-opacity="1" fill-rule="nonzero"/><path fill="#e73b37" d="M 30.765625 17.425781 C 30.765625 17.613281 30.800781 17.796875 30.875 17.972656 C 30.945312 18.144531 31.050781 18.300781 31.183594 18.433594 C 31.316406 18.566406 31.46875 18.667969 31.644531 18.742188 C 31.820312 18.8125 32 18.851562 32.1875 18.851562 C 32.378906 18.851562 32.558594 18.8125 32.734375 18.742188 C 32.910156 18.667969 33.0625 18.566406 33.195312 18.433594 C 33.328125 18.300781 33.433594 18.144531 33.503906 17.972656 C 33.578125 17.796875 33.613281 17.613281 33.613281 17.425781 C 33.613281 17.238281 33.578125 17.054688 33.503906 16.882812 C 33.433594 16.707031 33.328125 16.554688 33.195312 16.417969 C 33.0625 16.285156 32.910156 16.183594 32.734375 16.109375 C 32.558594 16.039062 32.378906 16.003906 32.1875 16.003906 C 32 16.003906 31.820312 16.039062 31.644531 16.109375 C 31.46875 16.183594 31.316406 16.285156 31.183594 16.417969 C 31.050781 16.554688 30.945312 16.707031 30.875 16.882812 C 30.800781 17.054688 30.765625 17.238281 30.765625 17.425781 Z M 30.765625 17.425781 " fill-opacity="1" fill-rule="nonzero"/><path fill="#e73b37" d="M 26.757812 7.75 C 26.757812 7.941406 26.792969 8.121094 26.867188 8.296875 C 26.9375 8.472656 27.039062 8.625 27.175781 8.761719 C 27.308594 8.894531 27.460938 8.996094 27.636719 9.070312 C 27.8125 9.140625 27.992188 9.175781 28.179688 9.175781 C 28.371094 9.175781 28.550781 9.140625 28.726562 9.070312 C 28.902344 8.996094 29.054688 8.894531 29.1875 8.761719 C 29.324219 8.625 29.425781 8.472656 29.496094 8.296875 C 29.570312 8.121094 29.605469 7.941406 29.605469 7.75 C 29.605469 7.5625 29.570312 7.382812 29.496094 7.207031 C 29.425781 7.03125 29.324219 6.878906 29.1875 6.742188 C 29.054688 6.609375 28.902344 6.507812 28.726562 6.433594 C 28.550781 6.363281 28.371094 6.324219 28.179688 6.324219 C 27.992188 6.324219 27.8125 6.363281 27.636719 6.433594 C 27.460938 6.507812 27.308594 6.609375 27.175781 6.742188 C 27.039062 6.878906 26.9375 7.03125 26.867188 7.207031 C 26.792969 7.382812 26.757812 7.5625 26.757812 7.75 Z M 26.757812 7.75 " fill-opacity="1" fill-rule="nonzero"/></svg>