<svg xmlns="http://www.w3.org/2000/svg" xmlns:xlink="http://www.w3.org/1999/xlink" width="50" zoomAndPan="magnify" viewBox="0 0 37.5 37.499999" height="50" preserveAspectRatio="xMidYMid meet" version="1.0"><path fill="#e73b37" d="M 18.140625 22.269531 C 18.140625 22.367188 18.175781 22.453125 18.246094 22.523438 C 18.316406 22.59375 18.402344 22.628906 18.503906 22.628906 C 18.601562 22.628906 18.6875 22.59375 18.757812 22.523438 C 18.828125 22.453125 18.863281 22.367188 18.863281 22.269531 C 18.863281 22.167969 18.828125 22.085938 18.757812 22.011719 C 18.6875 21.941406 18.601562 21.90625 18.503906 21.90625 C 18.402344 21.90625 18.316406 21.941406 18.246094 22.011719 C 18.175781 22.085938 18.140625 22.167969 18.140625 22.269531 Z M 18.140625 22.269531 " fill-opacity="1" fill-rule="nonzero"/><path fill="#e73b37" d="M 18.128906 23.738281 C 18.128906 23.839844 18.164062 23.925781 18.234375 23.996094 C 18.304688 24.066406 18.390625 24.101562 18.488281 24.101562 C 18.589844 24.101562 18.671875 24.066406 18.746094 23.996094 C 18.816406 23.925781 18.851562 23.839844 18.851562 23.738281 C 18.851562 23.640625 18.816406 23.554688 18.746094 23.484375 C 18.671875 23.414062 18.589844 23.378906 18.488281 23.378906 C 18.390625 23.378906 18.304688 23.414062 18.234375 23.484375 C 18.164062 23.554688 18.128906 23.640625 18.128906 23.738281 Z M 18.128906 23.738281 " fill-opacity="1" fill-rule="nonzero"/><path fill="#e73b37" d="M 18.15625 25.214844 C 18.15625 25.3125 18.191406 25.398438 18.261719 25.46875 C 18.332031 25.539062 18.417969 25.574219 18.519531 25.574219 C 18.617188 25.574219 18.703125 25.539062 18.773438 25.46875 C 18.84375 25.398438 18.878906 25.3125 18.878906 25.214844 C 18.878906 25.113281 18.84375 25.03125 18.773438 24.957031 C 18.703125 24.886719 18.617188 24.851562 18.519531 24.851562 C 18.417969 24.851562 18.332031 24.886719 18.261719 24.957031 C 18.191406 25.03125 18.15625 25.113281 18.15625 25.214844 Z M 18.15625 25.214844 " fill-opacity="1" fill-rule="nonzero"/><path fill="#39393a" d="M 18.503906 4.726562 C 20.023438 4.726562 21.457031 5.320312 22.53125 6.398438 C 23.609375 7.472656 24.203125 8.90625 24.203125 10.425781 C 24.203125 11.949219 23.609375 13.378906 22.53125 14.457031 C 21.457031 15.53125 20.023438 16.125 18.503906 16.125 C 16.980469 16.125 15.550781 15.53125 14.472656 14.457031 C 13.398438 13.378906 12.804688 11.949219 12.804688 10.425781 C 12.804688 8.90625 13.398438 7.472656 14.472656 6.398438 C 15.550781 5.320312 16.980469 4.726562 18.503906 4.726562 M 18.503906 3.136719 C 14.476562 3.136719 11.21875 6.398438 11.21875 10.421875 C 11.21875 14.449219 14.480469 17.707031 18.503906 17.707031 C 22.527344 17.707031 25.789062 14.445312 25.789062 10.421875 C 25.789062 6.398438 22.527344 3.136719 18.503906 3.136719 Z M 18.515625 18.917969 L 3.035156 24.625 L 3.035156 33.867188 L 33.972656 33.867188 L 33.972656 24.625 Z M 32.378906 32.277344 L 4.625 32.277344 L 4.625 25.753906 L 18.515625 20.605469 L 32.378906 25.753906 Z M 32.378906 32.277344 " fill-opacity="1" fill-rule="nonzero"/><path fill="#e73b37" d="M 20.070312 21.152344 L 20.019531 21.132812 L 20.019531 26.914062 C 20.019531 27.335938 19.847656 27.71875 19.574219 27.996094 C 19.292969 28.273438 18.910156 28.445312 18.488281 28.445312 C 17.644531 28.445312 16.957031 27.757812 16.957031 26.914062 L 16.957031 21.152344 L 16.90625 21.171875 L 16.378906 21.359375 L 16.378906 26.917969 C 16.378906 28.082031 17.324219 29.027344 18.488281 29.027344 C 19.652344 29.027344 20.597656 28.082031 20.597656 26.917969 L 20.597656 21.339844 Z M 20.070312 21.152344 " fill-opacity="1" fill-rule="nonzero"/></svg>